<?xml version="1.0" encoding="UTF-8"?>
<svg xmlns="http://www.w3.org/2000/svg" xmlns:xlink="http://www.w3.org/1999/xlink" width="10240pt" height="10240pt" viewBox="0 0 10240 10240" version="1.1">
<g id="surface1">
<path style=" stroke:none;fill-rule:nonzero;fill:rgb(0%,0%,0%);fill-opacity:1;" d="M 3703 2281 C 3595 2299 3466 2364 3363 2452 C 3206 2585 3111 2755 3080 2958 C 3073 3003 3070 3659 3072 4935 C 3076 7089 3068 6883 3155 7065 C 3260 7283 3470 7444 3716 7495 C 3779 7508 3986 7510 5232 7510 C 6026 7510 6729 7505 6795 7500 C 7092 7478 7315 7325 7445 7055 C 7469 7005 7493 6940 7500 6910 C 7508 6870 7511 6344 7511 5000 L 7510 3145 L 7323 2962 C 7100 2745 6668 2349 6603 2302 L 6558 2270 L 5156 2271 C 4386 2272 3732 2276 3703 2281 Z M 6461 2615 C 6465 2631 6473 2674 6479 2710 C 6486 2753 6507 2810 6542 2880 C 6585 2967 6607 2998 6669 3058 C 6755 3142 6818 3186 6871 3200 C 6892 3206 6975 3215 7055 3220 C 7136 3225 7203 3230 7204 3232 C 7204 3234 7203 4047 7200 5040 L 7195 6845 L 7172 6903 C 7108 7061 6962 7170 6790 7190 C 6665 7204 3847 7203 3778 7189 C 3598 7151 3449 7018 3404 6853 C 3386 6788 3385 6710 3385 4880 L 3385 2975 L 3408 2907 C 3436 2827 3497 2732 3548 2690 C 3597 2649 3694 2602 3750 2591 C 3775 2586 4392 2583 5125 2584 L 6454 2585 Z M 6461 2615 "/>
<path style=" stroke:none;fill-rule:nonzero;fill:rgb(0%,0%,0%);fill-opacity:1;" d="M 5247 2698 C 5238 2708 5227 2731 5224 2748 C 5215 2795 5152 2846 5005 2927 C 4781 3051 4570 3140 4390 3186 L 4295 3210 L 4230 3140 C 4175 3081 4159 3070 4133 3070 C 4107 3070 4097 3076 4085 3101 C 4069 3132 4069 3132 4120 3212 C 4168 3288 4170 3295 4164 3339 C 4144 3475 3961 3886 3830 4088 L 3771 4180 L 3706 4180 C 3633 4180 3620 4191 3620 4253 C 3620 4306 3647 4324 3715 4316 C 3767 4310 3772 4312 3795 4337 C 3832 4378 4017 4752 4083 4920 C 4117 5006 4147 5099 4155 5148 L 4170 5232 L 4105 5308 C 4069 5349 4040 5389 4040 5395 C 4040 5414 4080 5460 4097 5460 C 4115 5460 4151 5431 4237 5349 L 4298 5289 L 4382 5319 C 4520 5368 4585 5396 4692 5453 C 4749 5483 4854 5539 4927 5578 C 4999 5616 5091 5669 5129 5694 C 5205 5745 5211 5756 5226 5869 C 5233 5925 5257 5960 5288 5960 C 5332 5959 5350 5921 5350 5827 L 5350 5752 L 5403 5712 C 5476 5655 5628 5569 5815 5479 C 5959 5409 6014 5386 6197 5319 C 6284 5287 6294 5290 6380 5381 C 6447 5450 6461 5461 6481 5455 C 6508 5447 6540 5414 6540 5395 C 6540 5383 6520 5356 6455 5274 C 6428 5240 6425 5230 6426 5166 C 6430 4992 6646 4513 6797 4344 C 6819 4319 6836 4312 6875 4307 C 6939 4300 6980 4282 6980 4260 C 6980 4224 6958 4182 6937 4176 C 6925 4173 6887 4170 6853 4170 C 6818 4170 6790 4166 6790 4160 C 6790 4155 6762 4104 6728 4048 C 6585 3808 6411 3403 6410 3308 C 6410 3280 6420 3258 6450 3218 C 6472 3189 6490 3156 6490 3144 C 6490 3124 6452 3080 6435 3080 C 6430 3080 6397 3108 6363 3142 L 6300 3204 L 6233 3192 C 6028 3157 5722 3022 5443 2843 C 5379 2803 5359 2784 5355 2763 C 5352 2748 5344 2724 5337 2710 C 5321 2678 5271 2671 5247 2698 Z M 5621 3115 C 5825 3222 5956 3277 6078 3307 C 6182 3333 6183 3334 6160 3349 C 6146 3358 6111 3389 6081 3418 C 6029 3469 6025 3471 5986 3465 C 5872 3446 5666 3359 5450 3238 L 5355 3185 L 5355 3069 L 5354 2954 L 5415 2996 C 5449 3020 5541 3073 5621 3115 Z M 5193 3196 C 5147 3230 4915 3351 4825 3387 C 4717 3431 4598 3470 4571 3470 C 4562 3470 4520 3437 4476 3397 L 4397 3325 L 4471 3311 C 4512 3304 4586 3282 4635 3263 C 4821 3190 5187 2999 5200 2967 C 5203 2960 5206 3006 5208 3069 C 5210 3168 5208 3184 5193 3196 Z M 5460 3390 C 5562 3459 5725 3535 5814 3555 C 5918 3579 5916 3578 5878 3617 C 5860 3636 5831 3660 5814 3671 C 5785 3688 5779 3689 5727 3675 C 5670 3660 5412 3549 5375 3523 C 5357 3511 5355 3498 5355 3416 C 5355 3356 5359 3324 5365 3328 C 5371 3331 5413 3359 5460 3390 Z M 5215 3417 L 5214 3503 L 5180 3527 C 5136 3557 5040 3602 4930 3645 C 4792 3698 4795 3698 4721 3638 L 4657 3585 L 4691 3577 C 4831 3542 5054 3442 5150 3371 C 5180 3349 5207 3331 5210 3330 C 5213 3330 5215 3369 5215 3417 Z M 4330 3469 C 4330 3474 4348 3493 4369 3511 C 4391 3528 4411 3549 4414 3557 C 4431 3601 4302 3927 4199 4100 L 4154 4175 L 3944 4175 L 3985 4100 C 4008 4059 4052 3980 4082 3924 C 4169 3766 4237 3612 4261 3520 C 4273 3473 4284 3429 4286 3421 C 4289 3412 4296 3415 4310 3433 C 4321 3447 4330 3463 4330 3469 Z M 6304 3487 C 6338 3625 6488 3943 6590 4095 L 6641 4170 L 6546 4170 C 6437 4170 6440 4172 6374 4068 C 6272 3910 6170 3660 6170 3570 C 6170 3534 6177 3520 6218 3475 C 6244 3445 6270 3421 6276 3421 C 6282 3420 6295 3450 6304 3487 Z M 6044 3690 C 6058 3777 6161 4001 6236 4106 C 6260 4140 6278 4169 6275 4171 C 6273 4173 6227 4174 6173 4172 L 6074 4169 L 6027 4067 C 5971 3946 5930 3828 5930 3788 C 5930 3768 5944 3742 5977 3704 C 6003 3674 6027 3650 6031 3650 C 6034 3650 6040 3668 6044 3690 Z M 4650 3793 C 4650 3837 4600 3993 4554 4089 L 4510 4183 L 4464 4176 C 4438 4173 4395 4170 4367 4170 C 4329 4170 4320 4167 4328 4157 C 4333 4151 4354 4107 4373 4060 C 4392 4013 4426 3945 4447 3909 C 4480 3853 4496 3809 4537 3670 C 4544 3647 4650 3762 4650 3793 Z M 5215 3794 L 5215 3908 L 5178 3920 C 5157 3926 5128 3941 5113 3954 L 5086 3978 L 4998 3899 C 4949 3856 4910 3817 4911 3813 C 4912 3808 4951 3791 4999 3774 C 5046 3758 5112 3730 5145 3712 C 5178 3695 5207 3681 5210 3680 C 5213 3680 5215 3731 5215 3794 Z M 5603 3785 L 5671 3807 L 5609 3876 C 5575 3914 5540 3953 5531 3962 C 5516 3978 5512 3978 5456 3950 C 5424 3933 5389 3920 5379 3920 C 5362 3920 5360 3910 5360 3801 L 5360 3681 L 5448 3722 C 5496 3745 5566 3773 5603 3785 Z M 4978 4059 L 5001 4071 L 4980 4104 C 4969 4122 4960 4145 4960 4154 C 4960 4168 4942 4170 4804 4170 L 4649 4170 L 4668 4142 C 4678 4127 4695 4092 4705 4065 C 4715 4037 4736 3984 4753 3947 L 4783 3879 L 4869 3963 C 4916 4009 4965 4052 4978 4059 Z M 5819 3952 C 5832 3991 5859 4056 5881 4096 L 5919 4169 L 5787 4172 C 5714 4174 5650 4171 5643 4167 C 5636 4162 5623 4138 5614 4113 L 5597 4068 L 5691 3974 C 5743 3923 5787 3880 5791 3880 C 5794 3880 5806 3912 5819 3952 Z M 6290 4305 C 6290 4308 6267 4345 6239 4386 C 6173 4485 6093 4663 6066 4772 C 6055 4820 6042 4859 6039 4857 C 6035 4856 6009 4824 5980 4786 C 5932 4721 5928 4713 5934 4676 C 5946 4598 6002 4455 6049 4383 L 6095 4311 L 6180 4307 C 6227 4306 6271 4303 6278 4302 C 6284 4301 6290 4302 6290 4305 Z M 6622 4357 C 6487 4559 6363 4822 6305 5034 C 6296 5066 6285 5089 6281 5084 C 6276 5079 6249 5048 6220 5016 L 6167 4957 L 6173 4901 C 6186 4762 6311 4478 6402 4377 C 6454 4321 6456 4320 6525 4311 C 6564 4306 6610 4302 6628 4301 L 6661 4300 Z M 4173 4367 C 4266 4521 4345 4710 4380 4862 L 4402 4958 L 4355 5016 C 4328 5049 4303 5076 4299 5078 C 4295 5080 4286 5062 4280 5038 C 4238 4867 4113 4581 4001 4401 C 3973 4356 3950 4317 3950 4314 C 3950 4312 3992 4310 4044 4310 L 4139 4310 Z M 4510 4347 C 4537 4394 4608 4569 4626 4635 C 4649 4718 4645 4739 4594 4802 C 4569 4834 4545 4860 4542 4860 C 4538 4860 4522 4809 4506 4747 C 4471 4609 4433 4515 4374 4419 C 4299 4298 4296 4310 4399 4310 L 4488 4310 Z M 4952 4350 C 4957 4369 4966 4395 4972 4408 C 4983 4429 4976 4438 4885 4530 C 4831 4585 4784 4627 4782 4625 C 4779 4623 4761 4570 4740 4508 C 4720 4446 4693 4376 4681 4352 L 4659 4309 L 4802 4312 L 4944 4315 Z M 5893 4392 C 5873 4438 5847 4509 5835 4550 C 5823 4591 5810 4624 5806 4623 C 5802 4622 5754 4578 5699 4526 L 5598 4430 L 5618 4388 C 5629 4364 5640 4337 5643 4327 C 5649 4312 5665 4310 5789 4310 L 5928 4310 Z M 5189 4595 L 5220 4602 L 5220 4726 C 5220 4794 5218 4850 5216 4850 C 5214 4850 5181 4833 5143 4812 C 5083 4778 4979 4734 4913 4715 C 4894 4710 4903 4699 4988 4616 L 5085 4522 L 5121 4555 C 5141 4573 5172 4591 5189 4595 Z M 5546 4561 C 5556 4573 5595 4609 5631 4640 L 5697 4697 L 5641 4720 C 5554 4756 5428 4820 5393 4847 L 5360 4871 L 5360 4603 L 5398 4592 C 5418 4585 5449 4572 5465 4561 C 5504 4535 5523 4535 5546 4561 Z M 4856 4834 C 4921 4851 5078 4930 5153 4984 L 5212 5025 L 5216 5125 C 5218 5180 5217 5220 5213 5214 C 5191 5184 4953 5043 4868 5010 C 4812 4988 4678 4929 4670 4922 C 4662 4916 4774 4821 4790 4820 C 4798 4820 4828 4826 4856 4834 Z M 5864 4870 C 5912 4912 5918 4921 5903 4927 C 5746 4983 5591 5059 5452 5150 C 5401 5183 5358 5210 5356 5210 C 5350 5210 5351 5044 5357 5035 C 5397 4982 5717 4824 5791 4821 C 5800 4820 5833 4843 5864 4870 Z M 6116 5110 L 6178 5169 L 6095 5195 C 6049 5209 5962 5242 5900 5270 C 5776 5324 5482 5484 5407 5537 L 5359 5570 L 5362 5473 L 5365 5375 L 5450 5316 C 5597 5215 5953 5053 6034 5051 C 6045 5050 6081 5077 6116 5110 Z M 4650 5074 C 4700 5089 4824 5149 4912 5201 C 4944 5220 5007 5257 5052 5283 C 5098 5309 5151 5344 5170 5360 C 5204 5388 5205 5391 5211 5477 C 5214 5525 5216 5567 5214 5568 C 5213 5570 5179 5549 5138 5522 C 5071 5477 4898 5379 4758 5308 C 4727 5291 4639 5252 4563 5221 C 4428 5164 4395 5139 4438 5126 C 4448 5122 4470 5106 4486 5090 C 4510 5066 4523 5061 4560 5060 C 4585 5060 4625 5066 4650 5074 Z M 4650 5074 "/>
<path style=" stroke:none;fill-rule:nonzero;fill:rgb(0%,0%,0%);fill-opacity:1;" d="M 3837 5870 C 3805 5908 3803 5943 3830 5988 L 3850 6021 L 4812 6015 L 4836 5987 C 4866 5951 4867 5909 4836 5874 L 4813 5846 L 3863 5838 Z M 3837 5870 "/>
<path style=" stroke:none;fill-rule:nonzero;fill:rgb(0%,0%,0%);fill-opacity:1;" d="M 5709 5869 C 5674 5904 5670 5955 5699 5991 L 5718 6015 L 6732 6015 L 6756 5985 C 6789 5944 6787 5905 6751 5869 L 6722 5840 L 5738 5840 Z M 5709 5869 "/>
<path style=" stroke:none;fill-rule:nonzero;fill:rgb(0%,0%,0%);fill-opacity:1;" d="M 3839 6301 C 3804 6339 3802 6371 3833 6423 L 3855 6461 L 5289 6461 C 6357 6460 6727 6457 6737 6448 C 6758 6431 6780 6384 6780 6356 C 6780 6342 6769 6318 6756 6303 L 6732 6275 L 5300 6272 L 3868 6270 Z M 3839 6301 "/>
<path style=" stroke:none;fill-rule:nonzero;fill:rgb(0%,0%,0%);fill-opacity:1;" d="M 3885 6708 C 3849 6712 3825 6733 3812 6770 C 3799 6805 3827 6873 3862 6891 C 3880 6901 4180 6902 5300 6897 L 6715 6890 L 6748 6855 C 6788 6812 6789 6780 6751 6738 L 6722 6706 L 5319 6705 C 4547 6705 3902 6707 3885 6708 Z M 3885 6708 "/>
</g>
</svg>
