<?xml version="1.0" standalone="no"?>
<!DOCTYPE svg PUBLIC "-//W3C//DTD SVG 20010904//EN"
 "http://www.w3.org/TR/2001/REC-SVG-20010904/DTD/svg10.dtd">
<svg version="1.0" xmlns="http://www.w3.org/2000/svg"
 width="1024.000000pt" height="1024.000000pt" viewBox="0 0 1024.000000 1024.000000"
 preserveAspectRatio="xMidYMid meet">

<g transform="translate(0.000000,1024.000000) scale(0.100000,-0.100000)"
fill="#000000" stroke="none">
<path d="M4870 8246 c-655 -76 -1275 -343 -1754 -755 -237 -203 -478 -489
-640 -759 -106 -175 -136 -234 -202 -399 -241 -601 -301 -1277 -167 -1883 176
-795 629 -1472 1278 -1907 399 -268 837 -443 1320 -529 125 -22 190 -27 391
-31 251 -6 342 1 569 39 300 50 650 165 935 308 456 229 897 619 1174 1037
280 425 438 869 507 1428 17 131 17 519 0 665 -33 296 -112 601 -234 896 -161
393 -398 734 -728 1048 -305 291 -594 472 -1029 646 -198 79 -454 148 -690
185 -142 23 -571 29 -730 11z m180 -328 c0 -105 -17 -140 -120 -250 -217 -232
-524 -404 -916 -512 -103 -28 -331 -76 -364 -76 -4 0 -10 42 -14 93 -3 50 -16
150 -28 220 -24 148 -33 127 92 201 200 116 429 215 661 286 215 65 489 116
632 119 l57 1 0 -82z m495 61 c329 -48 611 -140 934 -304 187 -95 273 -151
267 -174 -13 -40 -46 -302 -46 -358 l0 -63 -30 0 c-55 0 -286 50 -401 86 -231
73 -513 209 -660 319 -104 78 -242 212 -287 279 -30 47 -32 54 -32 143 l0 93
58 0 c31 0 120 -9 197 -21z m-526 -857 c-22 -45 -59 -92 -123 -157 -216 -220
-463 -314 -824 -315 l-94 0 -94 98 c-51 53 -94 100 -94 103 0 4 24 9 53 13 79
10 268 60 397 105 335 115 552 236 740 409 l65 60 3 -126 c3 -124 2 -127 -29
-190z m421 180 c242 -187 616 -352 978 -431 l127 -28 -95 -98 -95 -97 -140 7
c-250 11 -417 58 -591 166 -107 65 -266 219 -308 298 -26 48 -29 65 -34 185
l-5 131 44 -38 c24 -20 78 -63 119 -95z m1684 -74 c21 -21 37 -40 35 -42 -26
-20 -136 -79 -177 -95 l-54 -21 6 37 c3 21 8 79 11 128 3 50 8 103 11 118 l6
28 61 -57 c34 -31 79 -75 101 -96z m-3735 30 c6 -62 14 -128 16 -145 2 -19 -1
-33 -7 -33 -16 0 -160 77 -192 103 l-29 23 58 50 c32 27 75 64 94 81 20 18 39
33 42 33 4 0 12 -51 18 -112z m-319 -290 c25 -20 77 -52 115 -71 65 -32 95
-43 179 -62 l29 -6 -7 -103 c-7 -117 -25 -223 -55 -344 -65 -253 -217 -499
-448 -723 -151 -147 -246 -215 -419 -302 -115 -59 -164 -76 -164 -59 0 44 24
237 41 327 77 415 215 765 428 1085 114 171 229 314 244 302 7 -4 32 -24 57
-44z m4406 -130 c305 -408 506 -943 550 -1465 3 -46 3 -83 0 -83 -4 0 -61 27
-127 60 -281 140 -523 351 -693 605 -60 89 -147 267 -180 369 -38 116 -67 266
-74 392 l-7 112 80 23 c101 29 220 88 265 133 l35 34 39 -42 c21 -22 72 -85
112 -138z m-2036 -194 c174 -128 399 -206 663 -230 l69 -6 -172 -173 -172
-173 -66 5 c-192 12 -292 45 -377 124 -91 84 -93 92 -97 356 l-3 231 50 -47
c28 -26 75 -65 105 -87z m-395 -322 c-4 -21 -27 -55 -67 -97 -100 -107 -223
-155 -402 -155 l-68 0 -150 148 c-82 81 -158 159 -168 173 l-19 25 84 2 c139
3 297 45 461 121 93 44 171 96 264 175 l65 55 3 -207 c2 -114 0 -222 -3 -240z
m1690 155 c19 -141 77 -316 162 -484 l66 -132 -21 -53 c-34 -85 -44 -150 -40
-273 1 -63 0 -115 -3 -115 -14 0 -176 179 -212 233 -57 85 -115 203 -141 287
-33 104 -46 207 -46 368 l0 137 108 114 107 115 3 -45 c1 -24 9 -93 17 -152z
m-3000 68 l108 -115 -6 -168 c-4 -126 -11 -186 -27 -245 -59 -219 -157 -384
-326 -547 -53 -52 -65 -60 -60 -40 25 102 15 246 -27 371 -20 59 -21 70 -9 86
8 10 38 68 68 128 92 191 140 363 151 547 3 54 9 98 13 98 5 0 56 -52 115
-115z m491 -536 l150 -156 -8 -99 c-15 -209 -98 -368 -252 -481 l-58 -43 -235
0 -235 0 89 88 c48 48 117 128 151 178 111 156 212 391 226 529 11 101 17 147
20 143 1 -1 70 -73 152 -159z m2075 -79 c52 -220 184 -445 363 -619 42 -40 76
-75 76 -77 0 -2 -105 -4 -233 -4 l-234 0 -39 28 c-48 35 -127 117 -161 166
-62 92 -103 237 -103 363 l0 68 72 80 c40 44 106 115 148 158 l75 79 8 -79 c4
-43 17 -116 28 -163z m-1251 -179 l0 -209 -31 -7 c-29 -6 -36 -1 -127 97 -179
190 -192 205 -192 211 0 4 20 7 44 7 57 0 156 32 231 74 33 18 63 34 68 35 4
0 7 -93 7 -208z m293 174 c58 -40 144 -69 230 -80 31 -4 57 -10 57 -12 0 -4
-132 -149 -260 -286 -13 -15 -25 -17 -54 -11 l-37 6 3 209 c2 115 4 209 6 209
1 0 26 -16 55 -35z m2100 -581 c55 -42 111 -81 124 -87 13 -5 23 -14 23 -19 0
-4 -79 -8 -176 -8 -170 0 -176 1 -195 23 -32 37 -58 93 -74 159 -15 64 -20
199 -8 211 3 4 51 -41 106 -98 54 -58 144 -139 200 -181z m-4245 159 c-3 -92
-8 -117 -32 -170 -48 -105 -45 -104 -246 -101 l-173 3 59 39 c94 62 192 146
286 245 48 50 93 91 99 91 8 0 10 -32 7 -107z m1551 -65 c53 -55 62 -69 52
-81 -6 -8 -20 -39 -31 -68 l-18 -54 -177 -3 -177 -2 39 44 c69 78 109 169 138
311 l6 29 52 -54 c28 -30 80 -85 116 -122z m1021 133 c0 -85 74 -254 135 -308
14 -12 25 -25 25 -28 0 -3 -76 -5 -169 -5 l-169 0 -17 43 c-9 23 -24 57 -32
75 l-16 33 99 102 c143 147 144 148 144 88z m-2646 -593 c44 -53 70 -130 74
-220 2 -48 2 -98 -2 -112 -6 -25 -8 -24 -58 32 -68 75 -198 193 -277 250 -123
91 -130 84 69 78 168 -4 175 -5 194 -28z m998 -15 c155 -117 255 -315 246
-489 l-3 -61 -145 -156 c-79 -86 -145 -155 -146 -154 -1 1 -7 37 -13 79 -14
101 -72 281 -127 390 -64 130 -136 231 -244 341 l-97 99 237 -3 237 -4 55 -42z
m652 -22 l25 -64 -106 -113 c-58 -63 -108 -113 -110 -111 -1 2 -12 38 -23 81
-22 89 -55 153 -111 221 -21 26 -39 49 -39 52 0 2 76 3 169 1 l170 -3 25 -64z
m1034 59 l112 0 -41 -52 c-23 -29 -54 -80 -69 -113 -26 -57 -31 -74 -45 -156
l-5 -37 -116 119 c-114 118 -115 119 -100 146 7 16 21 45 30 67 l16 39 53 -7
c28 -3 103 -6 165 -6z m842 -99 c-215 -230 -332 -459 -373 -727 l-12 -77 -147
157 -148 157 0 62 c1 150 59 299 160 410 108 118 88 111 365 117 132 3 242 4
244 3 2 -1 -38 -47 -89 -102z m898 76 c-18 -16 -57 -47 -87 -69 -76 -57 -270
-247 -288 -282 -14 -27 -16 -28 -26 -11 -5 10 -10 62 -10 114 -1 82 3 104 25
151 14 31 39 71 55 90 l31 35 167 0 167 0 -34 -28z m-5178 -47 c61 -24 188
-95 288 -163 194 -129 403 -348 515 -539 105 -178 193 -448 212 -648 3 -36 8
-81 10 -101 l5 -37 -67 -16 c-107 -27 -259 -111 -317 -175 -24 -26 -29 -22
-106 79 -346 455 -555 988 -605 1548 -4 46 -3 72 4 72 6 0 33 -9 61 -20z
m5651 -129 c-51 -517 -276 -1067 -608 -1478 l-74 -92 -39 35 c-91 84 -176 131
-288 159 l-68 16 8 92 c25 312 126 584 311 829 122 164 310 341 470 441 67 43
206 114 257 132 45 16 45 15 31 -134z m-4425 -156 c152 -188 244 -454 244
-699 0 -115 11 -95 -140 -253 l-79 -82 -5 32 c-27 192 -42 266 -72 356 -34
103 -99 247 -145 323 l-23 38 23 67 c37 112 47 271 25 383 -5 21 3 17 51 -30
31 -30 86 -91 121 -135z m3306 45 c-3 -123 15 -227 53 -301 15 -28 14 -31 -25
-92 -53 -85 -104 -196 -141 -309 -31 -94 -69 -290 -69 -356 l-1 -37 -111 114
-111 113 6 157 c8 229 52 374 175 571 61 99 198 258 222 260 3 0 4 -54 2 -120z
m-1877 28 l25 -11 0 -193 0 -193 -57 35 c-64 38 -150 68 -230 79 l-53 7 138
144 c75 79 140 144 144 144 4 0 19 -5 33 -12z m532 -218 l52 -56 -80 -16 c-87
-18 -182 -58 -216 -90 l-23 -21 0 129 c0 71 -3 159 -6 195 l-7 65 34 10 c34
10 35 10 114 -75 44 -47 103 -111 132 -141z m-766 -319 c87 -27 176 -87 219
-148 l35 -48 3 -234 c3 -224 2 -234 -15 -220 -10 8 -48 39 -85 70 -81 68 -272
168 -396 208 -86 29 -263 61 -331 61 -27 0 -30 2 -22 18 6 9 78 86 161 171
l150 154 108 -6 c65 -3 133 -14 173 -26z m1192 -138 l156 -168 -84 -12 c-298
-44 -542 -148 -719 -310 l-46 -42 0 238 0 238 28 39 c90 123 223 182 418 183
l91 1 156 -167z m-1662 -427 c162 -31 344 -111 470 -205 89 -67 203 -189 234
-250 23 -47 25 -60 25 -197 l0 -146 -60 57 c-149 145 -379 282 -669 399 -177
72 -433 146 -506 146 -14 0 -25 3 -25 6 0 3 44 54 98 111 l97 106 130 -6 c72
-3 164 -13 206 -21z m2118 -82 c55 -59 101 -108 101 -109 0 -1 -24 -5 -54 -9
-77 -9 -277 -68 -436 -128 -273 -103 -526 -250 -679 -394 -43 -41 -80 -74 -82
-74 -2 0 -3 69 -1 152 4 171 5 174 91 278 180 216 414 334 761 384 14 2 64 4
111 5 l86 1 102 -106z m-3034 -406 c-3 -40 -11 -114 -17 -165 l-10 -92 -104
90 c-57 50 -102 95 -98 100 14 23 192 129 232 138 1 1 0 -32 -3 -71z m455 35
c265 -58 604 -208 849 -377 93 -64 240 -202 298 -280 l43 -58 0 -104 0 -104
-51 0 c-122 0 -391 52 -617 120 -240 72 -505 189 -710 312 -81 49 -84 51 -78
82 19 103 37 245 43 339 l6 107 51 -6 c28 -3 103 -17 166 -31z m2844 -90 c4
-71 15 -179 24 -241 l18 -113 -25 -18 c-95 -65 -390 -214 -541 -272 -249 -97
-663 -189 -847 -189 l-43 0 0 101 c0 96 1 102 32 147 57 85 256 273 363 344
246 163 616 311 884 353 142 22 127 34 135 -112z m296 93 c49 -24 170 -106
169 -116 0 -3 -46 -44 -102 -91 -101 -86 -102 -87 -110 -60 -10 35 -22 291
-14 291 4 0 29 -11 57 -24z"/>
</g>
</svg>
